<svg width="20" height="20" viewBox="0 0 20 20" fill="none" xmlns="http://www.w3.org/2000/svg">
<circle cx="10" cy="10" r="10" fill="#F7931A"/>
<path fill-rule="evenodd" clip-rule="evenodd" d="M14.1406 8.69362C14.3486 7.29261 13.2896 6.53945 11.8416 6.03702L12.3113 4.13917L11.1645 3.85127L10.7072 5.69911C10.4057 5.62343 10.096 5.55203 9.7883 5.48129L10.2489 3.62128L9.10266 3.33337L8.63262 5.23057C8.38306 5.17332 8.13807 5.11672 7.90027 5.05717L7.90158 5.05125L6.31995 4.65345L6.01486 5.88731C6.01486 5.88731 6.86578 6.08375 6.84781 6.09592C7.31231 6.21273 7.39625 6.52235 7.38221 6.7678L6.84716 8.92987C6.87917 8.93809 6.92065 8.94994 6.96639 8.96836L6.92751 8.95858C6.90092 8.95187 6.87335 8.94491 6.8452 8.93809L6.09522 11.9668C6.03838 12.109 5.89433 12.3222 5.56964 12.2412C5.58107 12.258 4.73603 12.0316 4.73603 12.0316L4.16669 13.354L5.65914 13.7288C5.82581 13.7709 5.99048 13.8141 6.15344 13.8569L6.15396 13.8571C6.26228 13.8855 6.36985 13.9138 6.47674 13.9413L6.00212 15.8609L7.14768 16.1488L7.61772 14.2496C7.93065 14.3352 8.23443 14.4142 8.53168 14.4885L8.06327 16.3788L9.21013 16.6667L9.68475 14.7508C11.6404 15.1236 13.111 14.9732 13.73 13.1915C14.2287 11.7569 13.7051 10.9294 12.6762 10.3898C13.4255 10.2157 13.99 9.71921 14.1406 8.69362ZM11.5202 12.3948C11.195 13.711 9.14978 13.1668 8.21398 12.9179C8.12979 12.8955 8.05457 12.8755 7.9904 12.8594L8.62017 10.3163C8.69832 10.336 8.79379 10.3575 8.90194 10.382C9.86982 10.6008 11.8533 11.0491 11.5202 12.3948ZM9.09641 9.20183C9.87662 9.41156 11.5785 9.86904 11.8749 8.67281C12.1776 7.44925 10.5236 7.08041 9.71576 6.90028C9.62489 6.88001 9.54473 6.86214 9.47927 6.8457L8.90828 9.15221C8.96222 9.16575 9.02551 9.18277 9.09641 9.20183Z" fill="white"/>
</svg>
