<svg width="20" height="20" viewBox="0 0 20 20" fill="none" xmlns="http://www.w3.org/2000/svg">
<circle cx="10" cy="10" r="10" fill="#0033AD"/>
<path d="M6.98677 9.95298C6.95831 10.4559 7.33678 10.8871 7.83242 10.9165H7.88148C8.37041 10.9159 8.76899 10.5185 8.77799 10.0225C8.78699 9.52651 8.40309 9.11444 7.91451 9.09564C7.42592 9.07684 7.01237 9.45822 6.98431 9.95348L6.98677 9.95298Z" fill="white"/>
<path d="M3.63948 9.72203C3.47968 9.71295 3.34287 9.83698 3.33384 9.99911C3.32482 10.1612 3.447 10.3001 3.60679 10.3093C3.76658 10.3186 3.90351 10.1947 3.9127 10.0326C3.91725 9.95459 3.89098 9.87797 3.8397 9.81969C3.78843 9.76141 3.71637 9.72626 3.63948 9.72203Z" fill="white"/>
<path d="M6.92988 4.66713C7.07218 4.59299 7.12858 4.41606 7.05603 4.27141C6.98348 4.12677 6.8093 4.06889 6.66647 4.14197C6.52364 4.21505 6.46596 4.39156 6.53746 4.53674C6.57224 4.60704 6.63323 4.66035 6.70691 4.68483C6.78059 4.70932 6.86085 4.70294 6.92988 4.66713Z" fill="white"/>
<path d="M7.84078 6.27859C8.06182 6.16546 8.15065 5.89198 8.0392 5.66769C7.92776 5.4434 7.65823 5.35321 7.43714 5.46623C7.21604 5.57924 7.12709 5.85269 7.23842 6.07703C7.29193 6.18483 7.38546 6.26664 7.49844 6.30445C7.61142 6.34225 7.73457 6.33295 7.84078 6.27859Z" fill="white"/>
<path d="M4.77553 7.38698C4.90039 7.47029 5.06243 7.46905 5.18604 7.38385C5.30965 7.29864 5.37048 7.14626 5.34015 6.9978C5.30981 6.84933 5.1943 6.73404 5.04749 6.70571C4.90068 6.67738 4.75151 6.7416 4.66958 6.8684C4.55784 7.04132 4.60526 7.27337 4.77553 7.38698Z" fill="white"/>
<path d="M5.32145 9.55628C5.07429 9.54213 4.86261 9.73389 4.84857 9.98465C4.83454 10.2354 5.02347 10.4502 5.27062 10.4646C5.51776 10.4789 5.72958 10.2873 5.74379 10.0365C5.75773 9.78564 5.56872 9.57071 5.32145 9.55628Z" fill="white"/>
<path d="M4.8246 12.6146C4.64258 12.708 4.56956 12.9333 4.6615 13.118C4.75344 13.3027 4.97554 13.3769 5.15762 13.2837C5.33969 13.1904 5.41284 12.9651 5.32101 12.7804C5.27688 12.6916 5.19976 12.6242 5.10666 12.5931C5.01355 12.562 4.91208 12.5698 4.8246 12.6146Z" fill="white"/>
<path d="M6.56736 8.61614C6.81115 8.77824 7.1383 8.70915 7.29809 8.46182C7.45788 8.21449 7.38981 7.88256 7.14605 7.72042C6.90229 7.55827 6.57514 7.6273 6.4153 7.8746C6.33839 7.99335 6.3112 8.13826 6.33973 8.27737C6.36826 8.41648 6.45016 8.53837 6.56736 8.61614Z" fill="white"/>
<path d="M12.0966 6.24272C12.3041 6.38009 12.5822 6.32078 12.7176 6.11022C12.8531 5.89967 12.7947 5.61757 12.5872 5.48006C12.3797 5.34256 12.1017 5.40169 11.9661 5.61216C11.9008 5.71328 11.8778 5.83661 11.9023 5.95492C11.9268 6.07323 11.9967 6.17678 12.0966 6.24272Z" fill="white"/>
<path d="M13.0168 4.63626C13.115 4.70161 13.2424 4.70045 13.3395 4.63332C13.4366 4.56619 13.4843 4.44632 13.4602 4.32964C13.4362 4.21295 13.3453 4.12244 13.2298 4.10034C13.1144 4.07823 12.9972 4.12888 12.9329 4.22866C12.8452 4.36474 12.8828 4.54714 13.0168 4.63626Z" fill="white"/>
<path d="M12.1671 9.086C11.6721 9.05714 11.2477 9.44094 11.2192 9.94325C11.1908 10.4456 11.5691 10.8762 12.0641 10.905C12.0813 10.905 12.099 10.905 12.1161 10.905C12.4699 10.9048 12.7906 10.6938 12.9351 10.3662C13.0796 10.0385 13.0209 9.65532 12.7852 9.38759C12.6274 9.20704 12.4047 9.09837 12.1671 9.086Z" fill="white"/>
<path d="M8.13557 8.553C8.28757 8.8611 8.59847 9.05526 8.93806 9.05416C9.25017 9.05423 9.53994 8.8899 9.70339 8.62014C9.86684 8.35037 9.88054 8.01385 9.73957 7.73133C9.58652 7.42466 9.27588 7.23201 8.93708 7.23365C8.62597 7.23419 8.33728 7.39805 8.17404 7.66676C8.01079 7.93548 7.99624 8.27077 8.13557 8.553Z" fill="white"/>
<path d="M15.1746 7.38591C15.3566 7.2927 15.4298 7.06743 15.338 6.88268C15.2462 6.69792 15.0242 6.62359 14.8421 6.71662C14.6599 6.80965 14.5866 7.03484 14.6782 7.21969C14.7701 7.40457 14.9923 7.47896 15.1746 7.38591Z" fill="white"/>
<path d="M12.898 7.67606C12.6377 7.80909 12.5329 8.13106 12.6641 8.3952C12.7952 8.65934 13.1125 8.76563 13.3729 8.63259C13.6332 8.49956 13.738 8.17759 13.6069 7.91345C13.544 7.78651 13.4339 7.69015 13.301 7.64562C13.168 7.60108 13.023 7.61204 12.898 7.67606Z" fill="white"/>
<path d="M9.96574 4.49891C10.1149 4.50753 10.2545 4.42411 10.3194 4.28757C10.3843 4.15102 10.3618 3.98824 10.2623 3.87516C10.1627 3.76208 10.0059 3.72098 9.86482 3.77102C9.72377 3.82106 9.62634 3.95239 9.61796 4.10376C9.60653 4.31028 9.76219 4.48715 9.96574 4.49891Z" fill="white"/>
<path d="M9.96181 6.85741C10.2528 6.87396 10.5019 6.64815 10.5183 6.35297C10.5348 6.05778 10.3123 5.80493 10.0214 5.78811C9.73044 5.7713 9.48112 5.99688 9.46442 6.29205C9.44797 6.5875 9.67062 6.84057 9.96181 6.85741Z" fill="white"/>
<path d="M7.10209 12.3239C7.29272 12.2264 7.40668 12.0219 7.39082 11.8059C7.37495 11.5899 7.23239 11.4049 7.02961 11.3371C6.82684 11.2693 6.60379 11.3322 6.46449 11.4963C6.3252 11.6605 6.29709 11.8936 6.39328 12.087C6.52458 12.3509 6.84188 12.457 7.10209 12.3239Z" fill="white"/>
<path d="M10.3027 7.63875C10.0775 7.98745 10.1144 8.44677 10.3923 8.75386C10.6702 9.06095 11.1181 9.13741 11.4797 8.93948C11.8414 8.74155 12.0244 8.31976 11.924 7.9155C11.8237 7.51123 11.4656 7.22771 11.0547 7.22717C10.7517 7.22696 10.469 7.3817 10.3027 7.63875Z" fill="white"/>
<path d="M11.8635 11.4475C11.6645 11.047 11.2078 10.8532 10.787 10.9906C10.3663 11.128 10.1067 11.5557 10.1752 11.9988C10.2438 12.4418 10.62 12.7683 11.062 12.7683C11.2025 12.7673 11.3409 12.7332 11.4662 12.6688C11.9075 12.4421 12.0852 11.8961 11.8635 11.4475Z" fill="white"/>
<path d="M13.4323 11.3838C13.1886 11.2215 12.8614 11.2903 12.7014 11.5376C12.5414 11.7848 12.6093 12.1168 12.853 12.2791C13.0966 12.4414 13.4239 12.3726 13.5838 12.1253C13.7432 11.878 13.6755 11.5464 13.4323 11.3838Z" fill="white"/>
<path d="M15.151 10.0157C15.165 9.76491 14.976 9.55014 14.7288 9.5359C14.4817 9.52166 14.2699 9.71335 14.2558 9.9641C14.2417 10.2149 14.4305 10.4298 14.6777 10.4442C14.925 10.4583 15.1368 10.2666 15.151 10.0157Z" fill="white"/>
<path d="M16.393 9.69165C16.2758 9.6848 16.166 9.7503 16.1149 9.85759C16.0638 9.96488 16.0814 10.0928 16.1595 10.1818C16.2377 10.2708 16.361 10.3032 16.4719 10.264C16.5828 10.2248 16.6595 10.1217 16.6662 10.0027C16.6752 9.84036 16.553 9.70127 16.393 9.69165Z" fill="white"/>
<path d="M15.2236 12.6131C15.053 12.4997 14.8241 12.5481 14.7123 12.7211C14.6005 12.8942 14.6482 13.1265 14.8187 13.2399C14.9893 13.3534 15.2182 13.3051 15.3301 13.1321C15.3838 13.049 15.4028 12.9476 15.3829 12.8502C15.3629 12.7529 15.3056 12.6675 15.2236 12.6131Z" fill="white"/>
<path d="M6.98288 15.3638C6.84881 15.2745 6.6688 15.3124 6.58081 15.4484C6.49281 15.5844 6.53013 15.7671 6.66416 15.8564C6.7982 15.9457 6.97822 15.9078 7.06626 15.7719C7.10857 15.7065 7.12354 15.6268 7.10791 15.5503C7.09227 15.4737 7.04729 15.4066 6.98288 15.3638Z" fill="white"/>
<path d="M13.0692 15.3328C12.9643 15.3865 12.9016 15.499 12.9104 15.6178C12.9191 15.7366 12.9975 15.8385 13.109 15.8758C13.2206 15.9131 13.3433 15.8785 13.42 15.7882C13.4966 15.6979 13.5121 15.5696 13.4592 15.4632C13.4246 15.3934 13.3641 15.3404 13.2909 15.3159C13.2177 15.2915 13.138 15.2976 13.0692 15.3328Z" fill="white"/>
<path d="M9.69647 12.3598C9.9217 12.0111 9.88476 11.5517 9.60681 11.2446C9.32885 10.9375 8.88086 10.8611 8.51924 11.0592C8.15763 11.2572 7.97475 11.6791 8.07527 12.0834C8.17579 12.4877 8.53405 12.7711 8.94499 12.7714C9.24808 12.7724 9.53102 12.6175 9.69647 12.3598Z" fill="white"/>
<path d="M7.90263 13.7577C7.69547 13.6202 7.41768 13.6791 7.28209 13.8893C7.14649 14.0994 7.20443 14.3813 7.4115 14.5189C7.61857 14.6565 7.8964 14.5979 8.03213 14.3878C8.1677 14.1775 8.10974 13.8955 7.90263 13.7577Z" fill="white"/>
<path d="M9.99563 15.5011C9.792 15.4894 9.61752 15.6473 9.6059 15.8539C9.59427 16.0605 9.74991 16.2376 9.95354 16.2494C10.1572 16.2612 10.3317 16.1034 10.3434 15.8968C10.349 15.7975 10.3155 15.7 10.2503 15.6258C10.1851 15.5516 10.0935 15.5067 9.99563 15.5011Z" fill="white"/>
<path d="M9.99958 13.1431C9.78631 13.1299 9.58626 13.2485 9.49286 13.4435C9.39946 13.6385 9.43114 13.8714 9.5731 14.0334C9.71507 14.1954 9.9393 14.2546 10.1411 14.1833C10.3429 14.1121 10.4824 13.9244 10.4945 13.7079C10.5113 13.4134 10.2898 13.1607 9.99958 13.1431Z" fill="white"/>
<path d="M12.1583 13.7214C11.9964 13.8048 11.8999 13.979 11.9139 14.1627C11.928 14.3464 12.0498 14.5035 12.2225 14.5605C12.3952 14.6175 12.5848 14.5633 12.7028 14.4232C12.8207 14.283 12.8438 14.0846 12.7612 13.9205C12.7074 13.8129 12.6136 13.7314 12.5005 13.6941C12.3874 13.6567 12.2643 13.6665 12.1583 13.7214Z" fill="white"/>
</svg>
